<svg width="1558" height="1558" viewBox="0 0 1558 1558" fill="none" xmlns="http://www.w3.org/2000/svg">
<rect x="87" y="96" width="1383" height="1383" rx="39" stroke="black" stroke-width="70"/>
<path d="M91 1387.79L282.298 1197.35C308.049 1171.72 349.674 1171.72 375.425 1197.35L520.16 1341.43C545.91 1367.07 587.536 1367.07 613.286 1341.43L758.021 1197.35C783.771 1171.72 825.397 1171.72 851.147 1197.35L995.883 1341.43C1021.63 1367.07 1063.26 1367.07 1089.01 1341.43L1280.31 1151" stroke="black" stroke-width="67"/>
<rect x="192" y="187" width="1173" height="845" rx="43" fill="black"/>
<circle cx="1242.5" cy="1189.5" r="87.5" fill="#24FF00"/>
<path d="M527.454 382.108C425.64 404.217 354.91 506.432 360.881 622.398C365.265 710.265 411.489 785.577 482.621 820.644C508.919 833.797 528.444 838.778 558.333 839.972C624.287 842.958 689.439 811.482 741.438 751.909L754.591 736.964L742.641 718.838C736.064 708.679 724.711 689.546 717.537 675.796L704.384 651.093L694.225 665.628C681.276 684.556 643.215 722.216 628.671 730.78C590.022 753.291 556.943 755.884 522.277 738.952C490.793 723.606 465.296 689.137 455.726 649.293C446.957 612.435 451.742 569.196 468.077 536.125C490.588 490.302 536.215 463.202 579.658 469.975C610.545 474.761 632.263 487.308 663.141 517.794C692.433 546.882 707.369 569.401 738.853 631.568C784.677 722.421 824.725 772.236 880.119 807.106C900.241 819.654 920.96 828.824 943.48 835C966.391 841.38 1014.01 841.38 1037.52 835C1135.55 808.702 1201.9 708.875 1196.12 596.501C1191.74 508.633 1145.51 433.322 1074.38 398.246C1043.09 382.705 1028.95 379.515 989.704 379.515C959.618 379.515 955.234 380.112 938.899 385.093C892.871 399.04 851.032 426.737 816.562 465.983L802.615 481.721L812.382 496.666C817.756 504.837 829.118 524.166 837.486 539.503L852.627 567.593L862.777 553.254C875.726 534.726 903.619 505.835 919.169 494.678C947.062 474.752 977.548 465.787 1003.65 469.77C1049.47 476.543 1088.52 516.592 1101.28 569.589C1104.07 581.539 1105.27 593.302 1105.27 609.441C1105.27 652.875 1092.71 686.748 1066.01 715.238C1028.16 755.483 979.741 760.865 928.339 730.78C922.163 726.993 906.622 713.643 893.869 701.096C864.577 672.008 850.033 650.086 817.952 586.93C791.253 534.129 767.344 496.469 743.033 468.781C705.373 425.943 660.343 396.455 613.522 383.899C591.208 377.919 550.17 377.126 527.454 382.108Z" fill="#24FF00"/>
</svg>
