<svg width="1558" height="1558" viewBox="0 0 1558 1558" fill="none" xmlns="http://www.w3.org/2000/svg">
<g clip-path="url(#clip0_261_274)">
<mask id="path-1-inside-1_261_274" fill="white">
<rect y="245" width="1558" height="1067" rx="91"/>
</mask>
<rect y="245" width="1558" height="1067" rx="91" stroke="white" stroke-width="194" mask="url(#path-1-inside-1_261_274)"/>
<path d="M482.336 410.287C362.021 436.414 278.437 557.203 285.493 694.241C290.674 798.075 345.298 887.071 429.355 928.51C460.432 944.053 483.505 949.94 518.825 951.351C596.764 954.879 673.755 917.684 735.202 847.285L750.746 829.625L736.624 808.205C728.852 796.2 715.436 773.59 706.958 757.341L691.415 728.15L679.41 745.326C664.108 767.694 619.131 812.197 601.945 822.317C556.272 848.918 517.182 851.983 476.217 831.974C439.012 813.84 408.883 773.107 397.573 726.023C387.211 682.467 392.865 631.372 412.169 592.292C438.77 538.142 492.688 506.118 544.025 514.121C580.525 519.776 606.189 534.604 642.678 570.63C677.293 605.002 694.943 631.614 732.148 705.077C786.298 812.439 833.624 871.306 899.083 912.513C922.862 927.341 947.346 938.177 973.957 945.475C1001.03 953.014 1057.31 953.014 1085.09 945.475C1200.93 914.398 1279.34 796.432 1272.51 663.638C1267.33 559.804 1212.7 470.807 1128.65 429.358C1091.67 410.993 1074.96 407.223 1028.58 407.223C993.029 407.223 987.848 407.928 968.544 413.815C914.153 430.296 864.71 463.026 823.977 509.404L807.496 528.001L819.038 545.661C825.388 555.318 838.815 578.159 848.703 596.283L866.595 629.477L878.59 612.532C893.892 590.638 926.853 556.497 945.229 543.313C978.191 519.766 1014.22 509.172 1045.06 513.879C1099.21 521.883 1145.36 569.208 1160.44 631.835C1163.73 645.957 1165.14 659.858 1165.14 678.929C1165.14 730.256 1150.31 770.284 1118.76 803.951C1074.02 851.509 1016.81 857.869 956.065 822.317C948.767 817.842 930.402 802.066 915.332 787.239C880.717 752.866 863.531 726.96 825.62 652.328C794.07 589.933 765.815 545.43 737.087 512.71C692.584 462.088 639.372 427.242 584.043 412.404C557.673 405.338 509.179 404.4 482.336 410.287Z" fill="white"/>
<path d="M508 1237.79L699.298 1047.35C725.049 1021.72 766.674 1021.72 792.425 1047.35L937.16 1191.43C962.91 1217.07 1004.54 1217.07 1030.29 1191.43L1175.02 1047.35C1200.77 1021.72 1242.4 1021.72 1268.15 1047.35L1412.88 1191.43C1438.63 1217.07 1480.26 1217.07 1506.01 1191.43L1697.31 1001" stroke="#24FF00" stroke-width="88"/>
</g>
<defs>
<clipPath id="clip0_261_274">
<rect width="1558" height="1558" fill="white"/>
</clipPath>
</defs>
</svg>
