<svg width="18" height="18" viewBox="0 0 18 18" fill="none" xmlns="http://www.w3.org/2000/svg">
<path d="M5.46498 17.535C3.44282 17.535 1.61976 16.3169 0.845785 14.4488C0.0718085 12.5806 0.499315 10.4301 1.92898 9.00002L4.05098 6.87802L5.46498 8.29202L3.34398 10.413C2.58604 11.171 2.29004 12.2757 2.56746 13.311C2.84488 14.3464 3.6536 15.1551 4.68896 15.4325C5.72432 15.71 6.82904 15.414 7.58698 14.656L9.70798 12.535L11.122 13.95L9.00098 16.071C8.06506 17.0116 6.79184 17.5387 5.46498 17.535ZM6.17198 13.242L4.75798 11.828L11.829 4.75702L13.243 6.17102L6.17298 13.241L6.17198 13.242ZM13.951 11.121L12.536 9.70702L14.657 7.58602C15.4252 6.83035 15.7292 5.72069 15.4532 4.679C15.1773 3.63732 14.3638 2.82367 13.3222 2.54746C12.2806 2.27126 11.1708 2.57494 10.415 3.34302L8.29298 5.46402L6.87898 4.05002L9.00098 1.92802C10.9561 -0.0100136 14.11 -0.00310719 16.0565 1.94347C18.0031 3.89005 18.01 7.04394 16.072 8.99902L13.951 11.12V11.121Z" fill="#4FBFFF"/>
</svg>
